<svg width="73" height="72" viewBox="0 0 73 72" fill="none" xmlns="http://www.w3.org/2000/svg">
<path d="M0.5 36C0.5 16.1178 16.6178 0 36.5 0C56.3823 0 72.5 16.1178 72.5 36C72.5 55.8823 56.3823 72 36.5 72C16.6178 72 0.5 55.8823 0.5 36Z" fill="#FFF2F3"/>
<g clip-path="url(#clip0_0_102)">
<g clip-path="url(#clip1_0_102)">
<g clip-path="url(#clip2_0_102)">
<path d="M31.2753 43.6057H40.7246V48.3304H31.2753V43.6057Z" fill="#E74040"/>
<path d="M36 25.652C30.2686 25.652 25.6057 30.3149 25.6057 36.0462V50.2202C25.6057 52.3044 27.3013 53.9999 29.3854 53.9999H42.6145C44.6986 53.9999 46.3942 52.3044 46.3942 50.2202V36.0462C46.3942 30.3148 41.7314 25.652 36 25.652ZM30.3304 34.1564H41.6696V36.0462H39.7797V37.9361H37.8898V36.0462H30.3304V34.1564ZM42.6145 50.2202H29.3854V41.7158H42.6145V50.2202Z" fill="#E74040"/>
<path d="M45.7047 23.8388L40.3415 22L39.5571 24.288C41.4523 24.8625 43.155 25.8834 44.5427 27.228L45.7047 23.8388Z" fill="#E74040"/>
<path d="M32.4429 24.288L31.6584 22L26.2953 23.8388L27.4573 27.228C28.845 25.8834 30.5477 24.8625 32.4429 24.288Z" fill="#E74040"/>
</g>
</g>
</g>
<defs>
<clipPath id="clip0_0_102">
<rect width="32" height="32" fill="white" transform="translate(20 22)"/>
</clipPath>
<clipPath id="clip1_0_102">
<rect width="32" height="32" fill="white" transform="translate(20 22)"/>
</clipPath>
<clipPath id="clip2_0_102">
<rect width="20.7885" height="32" fill="white" transform="translate(25.6057 22)"/>
</clipPath>
</defs>
</svg>
