<svg width="32" height="32" viewBox="0 0 32 32" fill="none" xmlns="http://www.w3.org/2000/svg">
<g clip-path="url(#clip0_0_126)">
<g clip-path="url(#clip1_0_126)">
<g clip-path="url(#clip2_0_126)">
<g clip-path="url(#clip3_0_126)">
<path d="M4.89504 3.77637C4.89417 3.77637 4.8932 3.77637 4.89234 3.77637C4.58969 3.77637 4.30503 3.89435 4.09008 4.10876C3.87276 4.32554 3.75305 4.61419 3.75305 4.92148V22.0922C3.75305 22.7218 4.26732 23.2353 4.89956 23.237C7.56494 23.2433 12.0305 23.7988 15.1112 27.0227V9.05305C15.1112 8.8396 15.0566 8.63909 14.9537 8.47316C12.4253 4.40129 7.56645 3.78262 4.89504 3.77637Z" fill="#E74040"/>
<path d="M28.2471 22.0922V4.92135C28.2471 4.61407 28.1274 4.32542 27.91 4.10864C27.6951 3.89423 27.4102 3.77625 27.1079 3.77625C27.1069 3.77625 27.1059 3.77625 27.1051 3.77625C24.4338 3.7826 19.5749 4.40127 17.0464 8.47315C16.9435 8.63908 16.8891 8.83959 16.8891 9.05303V27.0225C19.9697 23.7987 24.4353 23.2432 27.1007 23.2368C27.7328 23.2352 28.2471 22.7217 28.2471 22.0922Z" fill="#E74040"/>
<path d="M30.8551 7.73621H30.0248V22.0922C30.0248 23.6998 28.715 25.0108 27.1049 25.0148C24.8441 25.0201 21.1163 25.4622 18.4763 27.9609C23.0423 26.843 27.8556 27.5697 30.5988 28.1948C30.9413 28.2728 31.2953 28.1922 31.5697 27.9735C31.8431 27.7553 32 27.4292 32 27.0791V8.8811C32.0001 8.24982 31.4864 7.73621 30.8551 7.73621Z" fill="#E74040"/>
<path d="M1.97517 22.0922V7.73621H1.14489C0.513726 7.73621 0 8.24982 0 8.8811V27.0788C0 27.429 0.156876 27.755 0.430331 27.9732C0.704541 28.1918 1.05816 28.2727 1.40122 28.1945C4.14439 27.5693 8.95788 26.8426 13.5237 27.9606C10.8837 25.462 7.15596 25.02 4.89515 25.0146C3.28513 25.0108 1.97517 23.6998 1.97517 22.0922Z" fill="#E74040"/>
</g>
</g>
</g>
</g>
<defs>
<clipPath id="clip0_0_126">
<rect width="32" height="32" fill="white"/>
</clipPath>
<clipPath id="clip1_0_126">
<rect width="32" height="24.4476" fill="white" transform="translate(0 3.77625)"/>
</clipPath>
<clipPath id="clip2_0_126">
<rect width="32" height="24.4476" fill="white" transform="translate(0 3.77625)"/>
</clipPath>
<clipPath id="clip3_0_126">
<rect width="32" height="24.4476" fill="white" transform="translate(0 3.77625)"/>
</clipPath>
</defs>
</svg>
