<svg width="32" height="32" viewBox="0 0 32 32" fill="none" xmlns="http://www.w3.org/2000/svg">
<g clip-path="url(#clip0_0_116)">
<g clip-path="url(#clip1_0_116)">
<g clip-path="url(#clip2_0_116)">
<path d="M6.61319 25.5456H28.4106C28.4774 25.5456 28.542 25.5361 28.6041 25.5213C28.6091 25.5213 28.6132 25.5221 28.6182 25.5221C29.0835 25.5221 29.4615 25.1445 29.4615 24.6788V0.843336C29.4616 0.377812 29.0835 0 28.6182 0H28.4123H7.96197H6.61437C4.36966 0 2.54379 1.82629 2.54379 4.07037C2.54379 4.10047 2.54971 4.12904 2.55264 4.15809C2.54971 6.23107 2.524 25.2792 2.54971 27.7833C2.54811 27.8322 2.54212 27.88 2.54212 27.9295C2.54212 30.0873 4.23171 31.8538 6.35695 31.9873C6.39959 31.9939 6.44139 32.0001 6.48563 32.0001H28.6181C29.0834 32.0001 29.4614 31.6225 29.4614 31.1567V27.9823C29.4614 27.5169 29.0833 27.139 28.6181 27.139C28.1528 27.139 27.7747 27.517 27.7747 27.9823V30.3135H6.61319C5.33164 30.3135 4.2855 29.296 4.23408 28.0272C4.23534 28.0045 4.23945 27.9831 4.23903 27.9601C4.23819 27.923 4.23694 27.8654 4.2361 27.7888C4.30981 26.54 5.34627 25.5456 6.61319 25.5456ZM7.18823 4.07037C7.18823 3.60485 7.56604 3.22704 8.03157 3.22704C8.49709 3.22704 8.8749 3.60485 8.8749 4.07037V21.2008C8.8749 21.6661 8.49709 22.0441 8.03157 22.0441C7.56604 22.0441 7.18823 21.666 7.18823 21.2008V4.07037Z" fill="#E74040"/>
</g>
</g>
</g>
<defs>
<clipPath id="clip0_0_116">
<rect width="32" height="32" fill="white"/>
</clipPath>
<clipPath id="clip1_0_116">
<rect width="32" height="32" fill="white"/>
</clipPath>
<clipPath id="clip2_0_116">
<rect width="26.9231" height="32.0001" fill="white" transform="translate(2.53839)"/>
</clipPath>
</defs>
</svg>
